<svg width="30" height="30" viewBox="0 0 30 30" fill="none" xmlns="http://www.w3.org/2000/svg">
<path d="M3.125 4.48934C3.125 4.21791 3.23279 3.9576 3.42465 3.76567C3.61651 3.57374 3.87674 3.46591 4.14807 3.46591H4.90924C6.20513 3.46591 6.98266 4.33787 7.42599 5.14843C7.722 5.6888 7.93616 6.31514 8.10395 6.8828C8.14933 6.87922 8.19483 6.87739 8.24036 6.87734H25.2888C26.421 6.87734 27.2395 7.96081 26.9285 9.0511L24.4349 17.7966C24.2113 18.5811 23.7383 19.2713 23.0876 19.7627C22.4368 20.2542 21.6436 20.5201 20.8282 20.5203H12.7146C11.8927 20.5204 11.0936 20.2504 10.44 19.7519C9.78642 19.2534 9.31458 18.554 9.09701 17.7612L8.0603 13.9786L6.34154 8.18187L6.34017 8.17095C6.12737 7.39724 5.92822 6.67265 5.63084 6.13228C5.34575 5.60692 5.11658 5.51277 4.9106 5.51277H4.14807C3.87674 5.51277 3.61651 5.40494 3.42465 5.21301C3.23279 5.02108 3.125 4.76077 3.125 4.48934ZM10.0451 13.4819L11.0695 17.2194C11.2741 17.959 11.9466 18.4735 12.7146 18.4735H20.8282C21.1989 18.4735 21.5594 18.3527 21.8553 18.1293C22.1511 17.906 22.3662 17.5923 22.4679 17.2358L24.8373 8.9242H8.69733L10.026 13.4095L10.0451 13.4819ZM14.7198 24.6168C14.7198 25.3406 14.4324 26.0347 13.9207 26.5466C13.4091 27.0584 12.7152 27.3459 11.9916 27.3459C11.2681 27.3459 10.5741 27.0584 10.0625 26.5466C9.55086 26.0347 9.26343 25.3406 9.26343 24.6168C9.26343 23.893 9.55086 23.1988 10.0625 22.687C10.5741 22.1752 11.2681 21.8876 11.9916 21.8876C12.7152 21.8876 13.4091 22.1752 13.9207 22.687C14.4324 23.1988 14.7198 23.893 14.7198 24.6168ZM12.6737 24.6168C12.6737 24.4358 12.6018 24.2623 12.4739 24.1343C12.346 24.0064 12.1725 23.9345 11.9916 23.9345C11.8107 23.9345 11.6372 24.0064 11.5093 24.1343C11.3814 24.2623 11.3096 24.4358 11.3096 24.6168C11.3096 24.7977 11.3814 24.9713 11.5093 25.0992C11.6372 25.2272 11.8107 25.2991 11.9916 25.2991C12.1725 25.2991 12.346 25.2272 12.4739 25.0992C12.6018 24.9713 12.6737 24.7977 12.6737 24.6168ZM24.2685 24.6168C24.2685 25.3406 23.981 26.0347 23.4694 26.5466C22.9578 27.0584 22.2638 27.3459 21.5403 27.3459C20.8167 27.3459 20.1228 27.0584 19.6112 26.5466C19.0995 26.0347 18.8121 25.3406 18.8121 24.6168C18.8121 23.893 19.0995 23.1988 19.6112 22.687C20.1228 22.1752 20.8167 21.8876 21.5403 21.8876C22.2638 21.8876 22.9578 22.1752 23.4694 22.687C23.981 23.1988 24.2685 23.893 24.2685 24.6168ZM22.2223 24.6168C22.2223 24.4358 22.1505 24.2623 22.0226 24.1343C21.8947 24.0064 21.7212 23.9345 21.5403 23.9345C21.3594 23.9345 21.1859 24.0064 21.058 24.1343C20.9301 24.2623 20.8582 24.4358 20.8582 24.6168C20.8582 24.7977 20.9301 24.9713 21.058 25.0992C21.1859 25.2272 21.3594 25.2991 21.5403 25.2991C21.7212 25.2991 21.8947 25.2272 22.0226 25.0992C22.1505 24.9713 22.2223 24.7977 22.2223 24.6168Z" fill="white"/>
</svg>
