<svg width="52" height="53" viewBox="0 0 52 53" fill="none" xmlns="http://www.w3.org/2000/svg">
<path d="M41.1901 7.72744C40.8969 7.3289 40.5166 7.00542 40.0794 6.78263C39.6422 6.55984 39.1602 6.44385 38.6714 6.44385H13.4839C12.9951 6.44385 12.513 6.55984 12.0759 6.78263C11.6387 7.00542 11.2584 7.3289 10.9651 7.72744L3.96092 17.2496C3.53585 17.8276 3.31455 18.5349 3.33284 19.257C3.35112 19.9791 3.60791 20.6738 4.06167 21.2287L23.6617 45.4031C23.9572 45.7627 24.3265 46.052 24.7436 46.2504C25.1606 46.4489 25.6153 46.5517 26.0755 46.5517C26.5358 46.5517 26.9905 46.4489 27.4075 46.2504C27.8246 46.052 28.1938 45.7627 28.4893 45.4031L48.0894 21.2287C48.5432 20.6738 48.8 19.9791 48.8182 19.257C48.8365 18.5349 48.6152 17.8276 48.1902 17.2496L41.1901 7.72744Z" stroke="white" stroke-opacity="0.8" stroke-width="2.45" stroke-linecap="round" stroke-linejoin="round"/>
<path d="M12.0399 6.80112L26.0777 46.5562" stroke="white" stroke-opacity="0.8" stroke-width="2.45" stroke-linecap="round" stroke-linejoin="round"/>
<path d="M40.1134 6.80112L26.0776 46.5562" stroke="white" stroke-opacity="0.8" stroke-width="2.45" stroke-linecap="round" stroke-linejoin="round"/>
<path d="M3.32703 19.2798H48.8178" stroke="white" stroke-opacity="0.8" stroke-width="2.45" stroke-linecap="round" stroke-linejoin="round"/>
<path d="M16.6323 19.2798L26.0776 6.44385L35.5229 19.2798" stroke="white" stroke-opacity="0.8" stroke-width="2.45" stroke-linecap="round" stroke-linejoin="round"/>
</svg>
