<svg width="60" height="60" viewBox="0 0 60 60" fill="none" xmlns="http://www.w3.org/2000/svg">
<path fill-rule="evenodd" clip-rule="evenodd" d="M44.688 41.454L49.233 24.156L42.591 28.386C41.2666 29.2304 39.6638 29.5218 38.1269 29.1976C36.59 28.8734 35.2415 27.9595 34.371 26.652L30 20.085L25.626 26.655C24.7551 27.962 23.4063 28.8753 21.8695 29.199C20.3326 29.5226 18.7301 29.2307 17.406 28.386L10.77 24.156L15.315 41.454H44.691H44.688ZM12.378 21.624C10.077 20.157 7.17001 22.278 7.86301 24.918L12.411 42.216C12.5794 42.8571 12.9553 43.4244 13.4802 43.8293C14.005 44.2342 14.6492 44.4539 15.312 44.454H44.688C45.3509 44.4539 45.995 44.2342 46.5199 43.8293C47.0447 43.4244 47.4206 42.8571 47.589 42.216L52.137 24.918C52.827 22.278 49.923 20.16 47.622 21.624L40.98 25.854C40.3182 26.2765 39.517 26.4227 38.7486 26.2611C37.9802 26.0996 37.3057 25.6432 36.87 24.99L32.496 18.42C32.222 18.0091 31.8509 17.6722 31.4155 17.4392C30.98 17.2062 30.4938 17.0843 30 17.0843C29.5062 17.0843 29.02 17.2062 28.5846 17.4392C28.1491 17.6722 27.778 18.0091 27.504 18.42L23.13 24.99C22.6948 25.6437 22.0205 26.1007 21.2521 26.2628C20.4836 26.4249 19.6822 26.2792 19.02 25.857L12.378 21.624Z" fill="white" fill-opacity="0.8"/>
<path d="M32.832 11.835C32.8328 12.5869 32.5349 13.3083 32.0038 13.8405C31.4727 14.3727 30.7519 14.6722 30 14.673C29.2481 14.6738 28.5267 14.3759 27.9945 13.8448C27.4623 13.3137 27.1628 12.5929 27.162 11.841C27.1612 11.0891 27.4591 10.3677 27.9902 9.83547C28.5213 9.30324 29.2421 9.00379 29.994 9.00299C30.7459 9.0022 31.4673 9.30012 31.9995 9.83122C32.5318 10.3623 32.8312 11.0831 32.832 11.835ZM55.5 17.508C55.5004 18.2599 55.2021 18.9811 54.6707 19.5131C54.1393 20.045 53.4184 20.3441 52.6665 20.3445C51.9146 20.3449 51.1934 20.0466 50.6614 19.5152C50.1295 18.9838 49.8304 18.2629 49.83 17.511C49.83 16.7591 50.1287 16.038 50.6604 15.5063C51.192 14.9747 51.9131 14.676 52.665 14.676C53.4169 14.676 54.138 14.9747 54.6696 15.5063C55.2013 16.038 55.5 16.7561 55.5 17.508ZM10.167 17.508C10.1672 17.8803 10.0941 18.249 9.95178 18.593C9.80949 18.937 9.60083 19.2497 9.33772 19.5131C9.0746 19.7765 8.76219 19.9855 8.4183 20.1281C8.07442 20.2708 7.70581 20.3443 7.33351 20.3445C6.96121 20.3447 6.59252 20.2716 6.24849 20.1293C5.90445 19.987 5.59182 19.7783 5.32842 19.5152C5.06503 19.2521 4.85604 18.9397 4.71338 18.5958C4.57073 18.2519 4.49721 17.8833 4.49701 17.511C4.49701 16.7591 4.7957 16.038 5.32736 15.5063C5.85903 14.9747 6.58012 14.676 7.33201 14.676C8.0839 14.676 8.80499 14.9747 9.33666 15.5063C9.86832 16.038 10.167 16.7561 10.167 17.508Z" fill="white" fill-opacity="0.8"/>
<path fill-rule="evenodd" clip-rule="evenodd" d="M15.75 48C15.75 47.6022 15.908 47.2206 16.1893 46.9393C16.4706 46.658 16.8522 46.5 17.25 46.5H43.461C43.8588 46.5 44.2404 46.658 44.5217 46.9393C44.803 47.2206 44.961 47.6022 44.961 48C44.961 48.3978 44.803 48.7794 44.5217 49.0607C44.2404 49.342 43.8588 49.5 43.461 49.5H17.25C16.8522 49.5 16.4706 49.342 16.1893 49.0607C15.908 48.7794 15.75 48.3978 15.75 48Z" fill="white" fill-opacity="0.8"/>
</svg>
