<svg width="54" height="54" viewBox="0 0 54 54" fill="none" xmlns="http://www.w3.org/2000/svg">
<g opacity="0.8">
<path fill-rule="evenodd" clip-rule="evenodd" d="M25.2855 6.29772C23.904 6.47997 22.1985 6.87147 19.773 7.43172L17.0077 8.07072C14.9602 8.54322 13.5472 8.87172 12.4695 9.24072C11.4277 9.59847 10.8382 9.94947 10.395 10.395C9.94948 10.8382 9.59848 11.4277 9.24073 12.4695C8.87173 13.5472 8.54323 14.958 8.07073 17.0077L7.43173 19.7707C6.87148 22.1985 6.47998 23.904 6.29773 25.2855C6.11773 26.631 6.16048 27.5422 6.39898 28.3702C6.63523 29.1982 7.08298 29.9925 7.94698 31.0387C8.83573 32.1142 10.071 33.354 11.8327 35.1157L15.9502 39.2332C19.008 42.291 21.1837 44.4622 23.0557 45.8887C24.8872 47.2882 26.2282 47.8125 27.5895 47.8125C28.953 47.8125 30.2917 47.2882 32.1255 45.8887C33.9952 44.4622 36.1732 42.2887 39.231 39.231C42.291 36.171 44.4622 33.9952 45.891 32.1255C47.286 30.2917 47.8125 28.953 47.8125 27.5895C47.8125 26.2282 47.2882 24.8895 45.8887 23.0557C44.4622 21.1837 42.2887 19.0057 39.231 15.948L35.1135 11.8305C33.354 10.071 32.1142 8.83572 31.041 7.94697C29.9925 7.08297 29.1982 6.63522 28.3702 6.39897C27.5422 6.16047 26.631 6.11997 25.2877 6.29772H25.2855ZM24.8445 2.95197C26.4577 2.73822 27.873 2.74497 29.2995 3.15447C30.7282 3.56397 31.932 4.30872 33.1875 5.34372C34.4025 6.34722 35.7525 7.69722 37.4422 9.38697L41.7082 13.653C44.6557 16.6005 46.9912 18.936 48.5707 21.0105C50.1997 23.1412 51.1875 25.1932 51.1875 27.5895C51.1875 29.988 50.1997 32.04 48.573 34.1707C46.9912 36.2452 44.658 38.5807 41.7082 41.5282L41.5282 41.7082C38.5807 44.6557 36.2452 46.9912 34.1707 48.5707C32.04 50.1997 29.9857 51.1875 27.5895 51.1875C25.1932 51.1875 23.1412 50.1997 21.0082 48.573C18.936 46.9912 16.6005 44.658 13.6507 41.7082L9.38923 37.44C7.70173 35.7525 6.34948 34.4002 5.34598 33.1875C4.31098 31.9297 3.56623 30.726 3.15673 29.2995C2.74723 27.8707 2.74048 26.4555 2.95423 24.8422C3.15898 23.2807 3.59098 21.4177 4.12648 19.0912L4.80148 16.1595C5.25148 14.2177 5.61598 12.6337 6.05023 11.3715C6.50473 10.0507 7.07398 8.94147 8.00998 8.00547C8.94598 7.06947 10.0575 6.49797 11.376 6.04797C12.6382 5.61147 14.2222 5.24697 16.164 4.79922L19.0957 4.12422C21.4222 3.58422 23.2852 3.15672 24.8467 2.94972L24.8445 2.95197ZM21.3525 17.9887C20.825 17.4612 20.1095 17.1649 19.3635 17.1649C18.6175 17.1649 17.902 17.4612 17.3745 17.9887C16.847 18.5162 16.5506 19.2317 16.5506 19.9777C16.5506 20.7237 16.847 21.4392 17.3745 21.9667C17.6357 22.2279 17.9458 22.4351 18.287 22.5765C18.6283 22.7178 18.9941 22.7906 19.3635 22.7906C19.7329 22.7906 20.0986 22.7178 20.4399 22.5765C20.7812 22.4351 21.0913 22.2279 21.3525 21.9667C21.6137 21.7055 21.8209 21.3954 21.9622 21.0542C22.1036 20.7129 22.1763 20.3471 22.1763 19.9777C22.1763 19.6083 22.1036 19.2426 21.9622 18.9013C21.8209 18.56 21.6137 18.2499 21.3525 17.9887ZM14.9872 15.6037C16.1476 14.4431 17.7215 13.7909 19.3627 13.7907C21.0039 13.7905 22.5779 14.4422 23.7386 15.6026C24.8993 16.763 25.5514 18.3369 25.5516 19.9781C25.5518 21.6193 24.9001 23.1933 23.7397 24.354C22.5791 25.5146 21.0049 26.1667 19.3635 26.1667C17.7221 26.1667 16.1479 25.5146 14.9872 24.354C13.8266 23.1933 13.1745 21.6191 13.1745 19.9777C13.1745 18.3363 13.8266 16.7644 14.9872 15.6037ZM29.2297 27.2407C28.7095 27.2606 28.2181 27.4845 27.8617 27.864C26.9887 28.737 27.2182 29.6077 27.4635 29.853C27.711 30.0982 28.5817 30.3255 29.4525 29.4547C31.2165 27.6907 34.263 27.1057 36.2137 29.0565C37.728 30.5707 37.7167 32.7442 36.81 34.4655C37.033 34.7898 37.1357 35.1819 37.1002 35.5739C37.0648 35.9659 36.8934 36.3332 36.6157 36.6122C36.3381 36.8912 35.9716 37.0643 35.5798 37.1017C35.1879 37.139 34.7953 37.0382 34.47 36.8167C33.4602 37.3703 32.2891 37.5549 31.158 37.3387C30.9408 37.2941 30.7345 37.2072 30.551 37.0828C30.3674 36.9585 30.2101 36.7992 30.0881 36.6141C29.9661 36.429 29.8817 36.2217 29.8398 36.0039C29.798 35.7862 29.7994 35.5624 29.844 35.3452C29.8886 35.1281 29.9755 34.9218 30.0999 34.7382C30.2242 34.5547 30.3835 34.3974 30.5686 34.2754C30.7537 34.1533 30.961 34.069 31.1788 34.0271C31.3965 33.9852 31.6203 33.9866 31.8375 34.0312C32.2357 34.1145 32.8792 33.9862 33.4305 33.4327C34.3012 32.5597 34.074 31.689 33.8287 31.4437C33.5812 31.1985 32.7105 30.9712 31.8397 31.842C30.0757 33.606 27.0292 34.191 25.0785 32.2402C23.5642 30.726 23.5755 28.5525 24.4822 26.8312C24.2592 26.5069 24.1565 26.1148 24.192 25.7228C24.2274 25.3308 24.3988 24.9635 24.6765 24.6845C24.9542 24.4055 25.3206 24.2324 25.7124 24.195C26.1043 24.1577 26.4969 24.2585 26.8222 24.48C27.5872 24.0727 28.4265 23.8567 29.2635 23.8657C29.711 23.8699 30.1386 24.0517 30.4521 24.3711C30.7656 24.6905 30.9394 25.1214 30.9352 25.569C30.931 26.0165 30.7493 26.4441 30.4298 26.7576C30.1104 27.0711 29.6773 27.2449 29.2297 27.2407Z" fill="white"/>
</g>
</svg>
